<svg xmlns="http://www.w3.org/2000/svg" viewBox="0 0 800 320">
  <rect width="800" height="320" rx="15" fill="#0D1117"/>
  <rect x="2" y="2" width="796" height="316" rx="13" fill="#0D1117" stroke="#30363D" stroke-width="2"/>

  <text x="400" y="50" text-anchor="middle" font-family="'Segoe UI', Ubuntu, Sans-Serif" font-weight="bold" font-size="28" fill="#58A6FF">EMBEDDED I2C GUIDE</text>
  <text x="400" y="80" text-anchor="middle" font-family="'Segoe UI', Ubuntu, Sans-Serif" font-size="14" fill="#8B949E">Inter-Integrated Circuit Protocol &amp; Hardware Physics</text>

  <line x1="100" y1="120" x2="700" y2="120" stroke="#238636" stroke-width="3" stroke-dasharray="5,5"/>
  <text x="710" y="125" font-family="Arial" font-size="12" fill="#238636" font-weight="bold">VCC (3.3V)</text>

  <g transform="translate(300, 120)">
    <line x1="0" y1="0" x2="0" y2="20" stroke="#8B949E" stroke-width="2"/>
    <rect x="-5" y="20" width="10" height="30" fill="#161B22" stroke="#D29922" stroke-width="2"/>
    <line x1="0" y1="50" x2="0" y2="100" stroke="#8B949E" stroke-width="2"/>
    <text x="15" y="40" font-family="Arial" font-size="12" fill="#D29922">Rp</text>
  </g>

  <g transform="translate(500, 120)">
    <line x1="0" y1="0" x2="0" y2="20" stroke="#8B949E" stroke-width="2"/>
    <rect x="-5" y="20" width="10" height="30" fill="#161B22" stroke="#D29922" stroke-width="2"/>
    <line x1="0" y1="50" x2="0" y2="140" stroke="#8B949E" stroke-width="2"/>
    <text x="15" y="40" font-family="Arial" font-size="12" fill="#D29922">Rp</text>
  </g>

  <line x1="50" y1="220" x2="750" y2="220" stroke="#1F6FEB" stroke-width="4"/>
  <line x1="300" y1="220" x2="300" y2="200" stroke="#1F6FEB" stroke-width="2"/> <circle cx="300" cy="220" r="4" fill="#1F6FEB"/>
  <text x="760" y="225" font-family="Arial" font-weight="bold" font-size="14" fill="#1F6FEB">SCL</text>

  <line x1="50" y1="260" x2="750" y2="260" stroke="#A371F7" stroke-width="4"/>
  <line x1="500" y1="260" x2="500" y2="200" stroke="#A371F7" stroke-width="2"/> <circle cx="500" cy="260" r="4" fill="#A371F7"/>
  <text x="760" y="265" font-family="Arial" font-weight="bold" font-size="14" fill="#A371F7">SDA</text>

  <rect x="60" y="180" width="100" height="100" rx="5" fill="#161B22" stroke="#58A6FF" stroke-width="2"/>
  <text x="110" y="235" text-anchor="middle" font-family="Arial" font-weight="bold" fill="#58A6FF" font-size="16">MASTER</text>

  <rect x="640" y="180" width="100" height="100" rx="5" fill="#161B22" stroke="#F78166" stroke-width="2"/>
  <text x="690" y="235" text-anchor="middle" font-family="Arial" font-weight="bold" fill="#F78166" font-size="16">SLAVE</text>

  <path d="M 200 220 L 220 220 L 220 190 L 240 190 L 240 220 L 260 220" stroke="#1F6FEB" stroke-width="2" fill="none" opacity="0.5"/>
  <path d="M 200 260 L 230 260 L 230 190 L 250 190 L 250 260 L 270 260" stroke="#A371F7" stroke-width="2" fill="none" opacity="0.5"/>
  
</svg>